<svg xmlns="http://www.w3.org/2000/svg" viewBox="0 0 800 800" role="img" aria-labelledby="title desc">
  <title id="title">Product placeholder</title>
  <desc id="desc">Abstract placeholder artwork for a product image.</desc>
  <defs>
    <linearGradient id="bg" x1="0%" y1="0%" x2="100%" y2="100%">
      <stop offset="0%" stop-color="#111214" />
      <stop offset="100%" stop-color="#1d2126" />
    </linearGradient>
    <linearGradient id="accent" x1="0%" y1="0%" x2="100%" y2="100%">
      <stop offset="0%" stop-color="#8ff5ff" stop-opacity="0.9" />
      <stop offset="100%" stop-color="#00c2d6" stop-opacity="0.35" />
    </linearGradient>
  </defs>
  <rect width="800" height="800" fill="url(#bg)" />
  <circle cx="625" cy="175" r="145" fill="#8ff5ff" fill-opacity="0.08" />
  <circle cx="180" cy="610" r="185" fill="#8ff5ff" fill-opacity="0.06" />
  <g transform="translate(130 120)">
    <rect x="72" y="0" width="396" height="552" rx="28" fill="#0f1012" stroke="#2e3840" stroke-width="10" />
    <rect x="120" y="64" width="300" height="216" rx="20" fill="#171c20" />
    <path d="M138 248 232 154l71 71 48-48 87 87v16H138z" fill="url(#accent)" />
    <circle cx="366" cy="132" r="32" fill="#8ff5ff" fill-opacity="0.55" />
    <rect x="120" y="332" width="186" height="18" rx="9" fill="#8ff5ff" fill-opacity="0.45" />
    <rect x="120" y="374" width="246" height="14" rx="7" fill="#46525c" />
    <rect x="120" y="406" width="216" height="14" rx="7" fill="#46525c" />
    <rect x="120" y="470" width="132" height="34" rx="10" fill="#8ff5ff" fill-opacity="0.16" />
    <rect x="276" y="470" width="144" height="34" rx="10" fill="#20272d" />
  </g>
</svg>
